<svg t="1708921703517" class="icon" viewBox="0 0 1024 1024" version="1.1" xmlns="http://www.w3.org/2000/svg" p-id="5504" width="200" height="200"><path d="M938.944 653.312h-22.464V550.656h-215.616v102.656h-35.904V550.656H449.28v102.656H307.776l18.24-273.088H224.128l18.24 273.088H87.744a22.464 22.464 0 0 0-22.4 22.4v147.264c0 12.288 10.112 22.4 22.4 22.4h475.328V844.8c0.576 0 1.088 0.32 1.664 0.32a22.4 22.4 0 0 0 22.4-22.464 22.208 22.208 0 0 0-21.184-22.144h75.264a22.208 22.208 0 0 0-21.12 22.144 22.4 22.4 0 0 0 22.4 22.464c0.704 0 1.28-0.32 1.92-0.384v0.64h78.656v-0.32l0.192 0.064a22.4 22.4 0 0 0 22.4-22.464 22.208 22.208 0 0 0-21.12-22.144h145.92a22.208 22.208 0 0 0-21.12 22.144 22.4 22.4 0 0 0 22.4 22.464c0.768 0 1.344-0.384 2.112-0.448l65.152 0.704c12.288 0 22.4-10.048 22.4-22.4v-147.264a22.592 22.592 0 0 0-22.464-22.4z m-375.872 147.264l0.384-0.064-0.384 0.064z m81.344 0.064l-0.704-0.128h0.704v0.128z m229.376 0.064c-0.32-0.064-0.576-0.192-0.896-0.192h0.896v0.192z" fill="" p-id="5505"></path><path d="M110.144 698.112H916.48v102.4H110.144z" fill="#F89722" p-id="5506"></path><path d="M494.08 595.456h126.144v57.856H494.08z" fill="#DE2A2B" p-id="5507"></path><path d="M745.6 595.456h126.08v57.856h-126.08z" fill="#2B6ADE" p-id="5508"></path><path d="M264.832 653.376l-17.28-250.752h55.04l-17.28 250.752z" fill="#FFFFFF" p-id="5509"></path><path d="M275.072 312.64m-114.944 0a114.944 114.944 0 1 0 229.888 0 114.944 114.944 0 1 0-229.888 0Z" fill="" p-id="5510"></path><path d="M275.072 312.64m-70.144 0a70.144 70.144 0 1 0 140.288 0 70.144 70.144 0 1 0-140.288 0Z" fill="#DE2A2B" p-id="5511"></path></svg>
